<mxfile host="app.diagrams.net" agent="Mozilla/5.0 (Macintosh; Intel Mac OS X 10_15_7) AppleWebKit/537.36 (KHTML, like Gecko) Chrome/136.0.0.0 Safari/537.36" version="27.0.3">
  <diagram name="Page-1" id="ngnPtOvVlFleFGhMRyeF">
    <mxGraphModel dx="2721" dy="1252" grid="1" gridSize="10" guides="1" tooltips="1" connect="1" arrows="1" fold="1" page="1" pageScale="1" pageWidth="850" pageHeight="1100" math="0" shadow="0">
      <root>
        <mxCell id="0" />
        <mxCell id="1" parent="0" />
        <mxCell id="5Po_MRYgEDb2Hn2Bj6dX-1" value="1.0" style="swimlane;fontStyle=0;childLayout=stackLayout;horizontal=1;startSize=20;fillColor=#ffffff;horizontalStack=0;resizeParent=1;resizeParentMax=0;resizeLast=0;collapsible=0;marginBottom=0;swimlaneFillColor=#ffffff;rounded=1;" parent="1" vertex="1">
          <mxGeometry x="360" y="170" width="140" height="50" as="geometry" />
        </mxCell>
        <mxCell id="5Po_MRYgEDb2Hn2Bj6dX-2" value="Create Account" style="text;html=1;align=center;verticalAlign=middle;whiteSpace=wrap;rounded=0;" parent="5Po_MRYgEDb2Hn2Bj6dX-1" vertex="1">
          <mxGeometry y="20" width="140" height="30" as="geometry" />
        </mxCell>
        <mxCell id="5Po_MRYgEDb2Hn2Bj6dX-3" value="2.0" style="swimlane;fontStyle=0;childLayout=stackLayout;horizontal=1;startSize=20;fillColor=#ffffff;horizontalStack=0;resizeParent=1;resizeParentMax=0;resizeLast=0;collapsible=0;marginBottom=0;swimlaneFillColor=#ffffff;rounded=1;" parent="1" vertex="1">
          <mxGeometry x="360" y="290" width="140" height="50" as="geometry" />
        </mxCell>
        <mxCell id="5Po_MRYgEDb2Hn2Bj6dX-4" value="Verification" style="text;html=1;align=center;verticalAlign=middle;whiteSpace=wrap;rounded=0;" parent="5Po_MRYgEDb2Hn2Bj6dX-3" vertex="1">
          <mxGeometry y="20" width="140" height="30" as="geometry" />
        </mxCell>
        <mxCell id="5Po_MRYgEDb2Hn2Bj6dX-5" value="3.0" style="swimlane;fontStyle=0;childLayout=stackLayout;horizontal=1;startSize=20;fillColor=#ffffff;horizontalStack=0;resizeParent=1;resizeParentMax=0;resizeLast=0;collapsible=0;marginBottom=0;swimlaneFillColor=#ffffff;rounded=1;" parent="1" vertex="1">
          <mxGeometry x="220" y="400" width="140" height="50" as="geometry" />
        </mxCell>
        <mxCell id="5Po_MRYgEDb2Hn2Bj6dX-6" value="Account Setup" style="text;html=1;align=center;verticalAlign=middle;whiteSpace=wrap;rounded=0;" parent="5Po_MRYgEDb2Hn2Bj6dX-5" vertex="1">
          <mxGeometry y="20" width="140" height="30" as="geometry" />
        </mxCell>
        <mxCell id="5Po_MRYgEDb2Hn2Bj6dX-9" value="D1" style="html=1;dashed=0;whiteSpace=wrap;shape=mxgraph.dfd.dataStoreID;align=left;spacingLeft=3;points=[[0,0],[0.5,0],[1,0],[0,0.5],[1,0.5],[0,1],[0.5,1],[1,1]];" parent="1" vertex="1">
          <mxGeometry x="620" y="295" width="170" height="40" as="geometry" />
        </mxCell>
        <mxCell id="5Po_MRYgEDb2Hn2Bj6dX-11" value="auth.user" style="text;html=1;align=center;verticalAlign=middle;whiteSpace=wrap;rounded=0;" parent="1" vertex="1">
          <mxGeometry x="650" y="295" width="140" height="40" as="geometry" />
        </mxCell>
        <mxCell id="5Po_MRYgEDb2Hn2Bj6dX-13" style="edgeStyle=orthogonalEdgeStyle;rounded=0;orthogonalLoop=1;jettySize=auto;html=1;entryX=0.999;entryY=0.174;entryDx=0;entryDy=0;entryPerimeter=0;" parent="1" source="5Po_MRYgEDb2Hn2Bj6dX-9" target="5Po_MRYgEDb2Hn2Bj6dX-4" edge="1">
          <mxGeometry relative="1" as="geometry" />
        </mxCell>
        <mxCell id="5Po_MRYgEDb2Hn2Bj6dX-14" style="edgeStyle=orthogonalEdgeStyle;rounded=0;orthogonalLoop=1;jettySize=auto;html=1;entryX=-0.013;entryY=0.731;entryDx=0;entryDy=0;entryPerimeter=0;" parent="1" source="5Po_MRYgEDb2Hn2Bj6dX-4" target="5Po_MRYgEDb2Hn2Bj6dX-9" edge="1">
          <mxGeometry relative="1" as="geometry" />
        </mxCell>
        <mxCell id="HyG3_zi9B4vWqZDfXpHW-1" value="Token" style="text;html=1;align=center;verticalAlign=middle;whiteSpace=wrap;rounded=0;" parent="1" vertex="1">
          <mxGeometry x="525" y="290" width="70" height="30" as="geometry" />
        </mxCell>
        <mxCell id="HyG3_zi9B4vWqZDfXpHW-2" value="Credentials" style="text;html=1;align=center;verticalAlign=middle;whiteSpace=wrap;rounded=0;" parent="1" vertex="1">
          <mxGeometry x="530" y="320" width="60" height="30" as="geometry" />
        </mxCell>
        <mxCell id="HyG3_zi9B4vWqZDfXpHW-5" style="edgeStyle=orthogonalEdgeStyle;rounded=0;orthogonalLoop=1;jettySize=auto;html=1;" parent="1" source="HyG3_zi9B4vWqZDfXpHW-3" target="5Po_MRYgEDb2Hn2Bj6dX-1" edge="1">
          <mxGeometry relative="1" as="geometry" />
        </mxCell>
        <mxCell id="HyG3_zi9B4vWqZDfXpHW-10" style="edgeStyle=orthogonalEdgeStyle;rounded=0;orthogonalLoop=1;jettySize=auto;html=1;entryX=0;entryY=0.25;entryDx=0;entryDy=0;" parent="1" source="HyG3_zi9B4vWqZDfXpHW-3" target="5Po_MRYgEDb2Hn2Bj6dX-4" edge="1">
          <mxGeometry relative="1" as="geometry">
            <Array as="points">
              <mxPoint x="200" y="318" />
            </Array>
          </mxGeometry>
        </mxCell>
        <mxCell id="HyG3_zi9B4vWqZDfXpHW-12" style="edgeStyle=orthogonalEdgeStyle;rounded=0;orthogonalLoop=1;jettySize=auto;html=1;exitX=0.25;exitY=1;exitDx=0;exitDy=0;entryX=-0.011;entryY=0.321;entryDx=0;entryDy=0;entryPerimeter=0;" parent="1" source="HyG3_zi9B4vWqZDfXpHW-3" target="5Po_MRYgEDb2Hn2Bj6dX-6" edge="1">
          <mxGeometry relative="1" as="geometry">
            <mxPoint x="70.25999999999995" y="212.00000000000006" as="sourcePoint" />
            <mxPoint x="200" y="430" as="targetPoint" />
            <Array as="points">
              <mxPoint x="155" y="430" />
            </Array>
          </mxGeometry>
        </mxCell>
        <mxCell id="HyG3_zi9B4vWqZDfXpHW-3" value="User" style="html=1;dashed=0;whiteSpace=wrap;" parent="1" vertex="1">
          <mxGeometry x="130" y="170" width="100" height="50" as="geometry" />
        </mxCell>
        <mxCell id="HyG3_zi9B4vWqZDfXpHW-6" value="Credentials" style="text;html=1;align=center;verticalAlign=middle;whiteSpace=wrap;rounded=0;" parent="1" vertex="1">
          <mxGeometry x="250" y="170" width="60" height="30" as="geometry" />
        </mxCell>
        <mxCell id="HyG3_zi9B4vWqZDfXpHW-7" style="edgeStyle=orthogonalEdgeStyle;rounded=0;orthogonalLoop=1;jettySize=auto;html=1;entryX=0.5;entryY=0;entryDx=0;entryDy=0;" parent="1" source="5Po_MRYgEDb2Hn2Bj6dX-2" target="5Po_MRYgEDb2Hn2Bj6dX-3" edge="1">
          <mxGeometry relative="1" as="geometry" />
        </mxCell>
        <mxCell id="HyG3_zi9B4vWqZDfXpHW-8" style="edgeStyle=orthogonalEdgeStyle;rounded=0;orthogonalLoop=1;jettySize=auto;html=1;entryX=0.5;entryY=0;entryDx=0;entryDy=0;" parent="1" source="5Po_MRYgEDb2Hn2Bj6dX-2" target="5Po_MRYgEDb2Hn2Bj6dX-11" edge="1">
          <mxGeometry relative="1" as="geometry" />
        </mxCell>
        <mxCell id="HyG3_zi9B4vWqZDfXpHW-13" value="D2" style="html=1;dashed=0;whiteSpace=wrap;shape=mxgraph.dfd.dataStoreID;align=left;spacingLeft=3;points=[[0,0],[0.5,0],[1,0],[0,0.5],[1,0.5],[0,1],[0.5,1],[1,1]];" parent="1" vertex="1">
          <mxGeometry x="490" y="405" width="170" height="40" as="geometry" />
        </mxCell>
        <mxCell id="HyG3_zi9B4vWqZDfXpHW-14" value="public.user" style="text;html=1;align=center;verticalAlign=middle;whiteSpace=wrap;rounded=0;" parent="1" vertex="1">
          <mxGeometry x="520" y="405" width="140" height="40" as="geometry" />
        </mxCell>
        <mxCell id="HyG3_zi9B4vWqZDfXpHW-16" value="User Input" style="text;html=1;align=center;verticalAlign=middle;whiteSpace=wrap;rounded=0;" parent="1" vertex="1">
          <mxGeometry x="610" y="180" width="60" height="30" as="geometry" />
        </mxCell>
        <mxCell id="HyG3_zi9B4vWqZDfXpHW-17" value="Credentials" style="text;html=1;align=center;verticalAlign=middle;whiteSpace=wrap;rounded=0;" parent="1" vertex="1">
          <mxGeometry x="240" y="290" width="60" height="30" as="geometry" />
        </mxCell>
        <mxCell id="HyG3_zi9B4vWqZDfXpHW-18" value="User Input" style="text;html=1;align=center;verticalAlign=middle;whiteSpace=wrap;rounded=0;" parent="1" vertex="1">
          <mxGeometry x="440" y="240" width="60" height="30" as="geometry" />
        </mxCell>
        <mxCell id="HyG3_zi9B4vWqZDfXpHW-19" value="User Information" style="text;html=1;align=center;verticalAlign=middle;whiteSpace=wrap;rounded=0;" parent="1" vertex="1">
          <mxGeometry x="160" y="360" width="100" height="30" as="geometry" />
        </mxCell>
        <mxCell id="HyG3_zi9B4vWqZDfXpHW-20" value="User ID" style="text;html=1;align=center;verticalAlign=middle;whiteSpace=wrap;rounded=0;" parent="1" vertex="1">
          <mxGeometry x="370" y="440" width="100" height="30" as="geometry" />
        </mxCell>
        <mxCell id="HyG3_zi9B4vWqZDfXpHW-22" style="edgeStyle=orthogonalEdgeStyle;rounded=0;orthogonalLoop=1;jettySize=auto;html=1;" parent="1" source="5Po_MRYgEDb2Hn2Bj6dX-4" target="5Po_MRYgEDb2Hn2Bj6dX-5" edge="1">
          <mxGeometry relative="1" as="geometry">
            <Array as="points">
              <mxPoint x="400" y="370" />
              <mxPoint x="290" y="370" />
            </Array>
          </mxGeometry>
        </mxCell>
        <mxCell id="HyG3_zi9B4vWqZDfXpHW-24" value="4.0" style="swimlane;fontStyle=0;childLayout=stackLayout;horizontal=1;startSize=20;fillColor=#ffffff;horizontalStack=0;resizeParent=1;resizeParentMax=0;resizeLast=0;collapsible=0;marginBottom=0;swimlaneFillColor=#ffffff;rounded=1;" parent="1" vertex="1">
          <mxGeometry x="320" y="510" width="140" height="50" as="geometry" />
        </mxCell>
        <mxCell id="HyG3_zi9B4vWqZDfXpHW-25" value="Application Access" style="text;html=1;align=center;verticalAlign=middle;whiteSpace=wrap;rounded=0;" parent="HyG3_zi9B4vWqZDfXpHW-24" vertex="1">
          <mxGeometry y="20" width="140" height="30" as="geometry" />
        </mxCell>
        <mxCell id="HyG3_zi9B4vWqZDfXpHW-32" style="edgeStyle=orthogonalEdgeStyle;rounded=0;orthogonalLoop=1;jettySize=auto;html=1;entryX=-0.002;entryY=0.724;entryDx=0;entryDy=0;entryPerimeter=0;" parent="1" source="5Po_MRYgEDb2Hn2Bj6dX-6" target="HyG3_zi9B4vWqZDfXpHW-13" edge="1">
          <mxGeometry relative="1" as="geometry" />
        </mxCell>
        <mxCell id="HyG3_zi9B4vWqZDfXpHW-33" style="edgeStyle=orthogonalEdgeStyle;rounded=0;orthogonalLoop=1;jettySize=auto;html=1;entryX=0;entryY=0.5;entryDx=0;entryDy=0;" parent="1" source="5Po_MRYgEDb2Hn2Bj6dX-4" target="HyG3_zi9B4vWqZDfXpHW-13" edge="1">
          <mxGeometry relative="1" as="geometry" />
        </mxCell>
        <mxCell id="HyG3_zi9B4vWqZDfXpHW-34" value="User ID" style="text;html=1;align=center;verticalAlign=middle;whiteSpace=wrap;rounded=0;" parent="1" vertex="1">
          <mxGeometry x="410" y="360" width="100" height="30" as="geometry" />
        </mxCell>
        <mxCell id="HyG3_zi9B4vWqZDfXpHW-35" value="User ID" style="text;html=1;align=center;verticalAlign=middle;whiteSpace=wrap;rounded=0;" parent="1" vertex="1">
          <mxGeometry x="280" y="340" width="100" height="30" as="geometry" />
        </mxCell>
        <mxCell id="HyG3_zi9B4vWqZDfXpHW-37" style="edgeStyle=orthogonalEdgeStyle;rounded=0;orthogonalLoop=1;jettySize=auto;html=1;entryX=0.464;entryY=0;entryDx=0;entryDy=0;entryPerimeter=0;" parent="1" source="HyG3_zi9B4vWqZDfXpHW-13" target="HyG3_zi9B4vWqZDfXpHW-24" edge="1">
          <mxGeometry relative="1" as="geometry">
            <Array as="points">
              <mxPoint x="575" y="480" />
              <mxPoint x="385" y="480" />
            </Array>
          </mxGeometry>
        </mxCell>
        <mxCell id="HyG3_zi9B4vWqZDfXpHW-38" value="User Info" style="text;html=1;align=center;verticalAlign=middle;whiteSpace=wrap;rounded=0;" parent="1" vertex="1">
          <mxGeometry x="440" y="480" width="100" height="30" as="geometry" />
        </mxCell>
        <mxCell id="_3y1C-OyyPjyJ7rn_RSj-16" style="edgeStyle=orthogonalEdgeStyle;rounded=0;orthogonalLoop=1;jettySize=auto;html=1;entryX=0;entryY=0.25;entryDx=0;entryDy=0;" edge="1" parent="1" source="_3y1C-OyyPjyJ7rn_RSj-8" target="_3y1C-OyyPjyJ7rn_RSj-15">
          <mxGeometry relative="1" as="geometry" />
        </mxCell>
        <mxCell id="_3y1C-OyyPjyJ7rn_RSj-29" style="edgeStyle=orthogonalEdgeStyle;rounded=0;orthogonalLoop=1;jettySize=auto;html=1;entryX=0;entryY=0.25;entryDx=0;entryDy=0;" edge="1" parent="1" source="_3y1C-OyyPjyJ7rn_RSj-8" target="_3y1C-OyyPjyJ7rn_RSj-26">
          <mxGeometry relative="1" as="geometry">
            <Array as="points">
              <mxPoint x="420" y="718" />
            </Array>
          </mxGeometry>
        </mxCell>
        <mxCell id="_3y1C-OyyPjyJ7rn_RSj-30" style="edgeStyle=orthogonalEdgeStyle;rounded=0;orthogonalLoop=1;jettySize=auto;html=1;entryX=0;entryY=0.25;entryDx=0;entryDy=0;" edge="1" parent="1" source="_3y1C-OyyPjyJ7rn_RSj-8" target="_3y1C-OyyPjyJ7rn_RSj-28">
          <mxGeometry relative="1" as="geometry">
            <Array as="points">
              <mxPoint x="390" y="798" />
            </Array>
          </mxGeometry>
        </mxCell>
        <mxCell id="_3y1C-OyyPjyJ7rn_RSj-50" style="edgeStyle=orthogonalEdgeStyle;rounded=0;orthogonalLoop=1;jettySize=auto;html=1;entryX=0.5;entryY=0;entryDx=0;entryDy=0;" edge="1" parent="1" source="_3y1C-OyyPjyJ7rn_RSj-8" target="_3y1C-OyyPjyJ7rn_RSj-48">
          <mxGeometry relative="1" as="geometry" />
        </mxCell>
        <mxCell id="_3y1C-OyyPjyJ7rn_RSj-8" value="User" style="html=1;dashed=0;whiteSpace=wrap;" vertex="1" parent="1">
          <mxGeometry x="340" y="610" width="100" height="50" as="geometry" />
        </mxCell>
        <mxCell id="_3y1C-OyyPjyJ7rn_RSj-9" style="edgeStyle=orthogonalEdgeStyle;rounded=0;orthogonalLoop=1;jettySize=auto;html=1;entryX=0.5;entryY=0;entryDx=0;entryDy=0;" edge="1" parent="1" source="HyG3_zi9B4vWqZDfXpHW-25" target="_3y1C-OyyPjyJ7rn_RSj-8">
          <mxGeometry relative="1" as="geometry" />
        </mxCell>
        <mxCell id="_3y1C-OyyPjyJ7rn_RSj-10" value="Authorization" style="text;html=1;align=center;verticalAlign=middle;whiteSpace=wrap;rounded=0;" vertex="1" parent="1">
          <mxGeometry x="393" y="567" width="80" height="30" as="geometry" />
        </mxCell>
        <mxCell id="_3y1C-OyyPjyJ7rn_RSj-14" value="5.0" style="swimlane;fontStyle=0;childLayout=stackLayout;horizontal=1;startSize=20;fillColor=#ffffff;horizontalStack=0;resizeParent=1;resizeParentMax=0;resizeLast=0;collapsible=0;marginBottom=0;swimlaneFillColor=#ffffff;rounded=1;" vertex="1" parent="1">
          <mxGeometry x="540" y="607" width="120" height="50" as="geometry" />
        </mxCell>
        <mxCell id="_3y1C-OyyPjyJ7rn_RSj-15" value="Create Team" style="text;html=1;align=center;verticalAlign=middle;whiteSpace=wrap;rounded=0;" vertex="1" parent="_3y1C-OyyPjyJ7rn_RSj-14">
          <mxGeometry y="20" width="120" height="30" as="geometry" />
        </mxCell>
        <mxCell id="_3y1C-OyyPjyJ7rn_RSj-22" value="Team&lt;div&gt;Information&lt;/div&gt;" style="text;html=1;align=center;verticalAlign=middle;whiteSpace=wrap;rounded=0;" vertex="1" parent="1">
          <mxGeometry x="448" y="600" width="80" height="30" as="geometry" />
        </mxCell>
        <mxCell id="_3y1C-OyyPjyJ7rn_RSj-25" value="6.0" style="swimlane;fontStyle=0;childLayout=stackLayout;horizontal=1;startSize=20;fillColor=#ffffff;horizontalStack=0;resizeParent=1;resizeParentMax=0;resizeLast=0;collapsible=0;marginBottom=0;swimlaneFillColor=#ffffff;rounded=1;" vertex="1" parent="1">
          <mxGeometry x="540" y="690" width="120" height="50" as="geometry" />
        </mxCell>
        <mxCell id="_3y1C-OyyPjyJ7rn_RSj-26" value="Register Club" style="text;html=1;align=center;verticalAlign=middle;whiteSpace=wrap;rounded=0;" vertex="1" parent="_3y1C-OyyPjyJ7rn_RSj-25">
          <mxGeometry y="20" width="120" height="30" as="geometry" />
        </mxCell>
        <mxCell id="_3y1C-OyyPjyJ7rn_RSj-27" value="7.0" style="swimlane;fontStyle=0;childLayout=stackLayout;horizontal=1;startSize=20;fillColor=#ffffff;horizontalStack=0;resizeParent=1;resizeParentMax=0;resizeLast=0;collapsible=0;marginBottom=0;swimlaneFillColor=#ffffff;rounded=1;" vertex="1" parent="1">
          <mxGeometry x="540" y="770" width="120" height="50" as="geometry" />
        </mxCell>
        <mxCell id="_3y1C-OyyPjyJ7rn_RSj-28" value="Register Organizer" style="text;html=1;align=center;verticalAlign=middle;whiteSpace=wrap;rounded=0;" vertex="1" parent="_3y1C-OyyPjyJ7rn_RSj-27">
          <mxGeometry y="20" width="120" height="30" as="geometry" />
        </mxCell>
        <mxCell id="_3y1C-OyyPjyJ7rn_RSj-31" value="Club Info and Licenses" style="text;html=1;align=center;verticalAlign=middle;whiteSpace=wrap;rounded=0;" vertex="1" parent="1">
          <mxGeometry x="440" y="682" width="80" height="30" as="geometry" />
        </mxCell>
        <mxCell id="_3y1C-OyyPjyJ7rn_RSj-32" value="Organizer Info and Licenses" style="text;html=1;align=center;verticalAlign=middle;whiteSpace=wrap;rounded=0;" vertex="1" parent="1">
          <mxGeometry x="420" y="760" width="80" height="30" as="geometry" />
        </mxCell>
        <mxCell id="_3y1C-OyyPjyJ7rn_RSj-33" value="D3" style="html=1;dashed=0;whiteSpace=wrap;shape=mxgraph.dfd.dataStoreID;align=left;spacingLeft=3;points=[[0,0],[0.5,0],[1,0],[0,0.5],[1,0.5],[0,1],[0.5,1],[1,1]];" vertex="1" parent="1">
          <mxGeometry x="750" y="620" width="140" height="40" as="geometry" />
        </mxCell>
        <mxCell id="_3y1C-OyyPjyJ7rn_RSj-34" value="public.teams" style="text;html=1;align=center;verticalAlign=middle;whiteSpace=wrap;rounded=0;" vertex="1" parent="1">
          <mxGeometry x="780" y="620" width="110" height="40" as="geometry" />
        </mxCell>
        <mxCell id="_3y1C-OyyPjyJ7rn_RSj-36" style="edgeStyle=orthogonalEdgeStyle;rounded=0;orthogonalLoop=1;jettySize=auto;html=1;entryX=0;entryY=0.5;entryDx=0;entryDy=0;exitX=1;exitY=0.433;exitDx=0;exitDy=0;exitPerimeter=0;" edge="1" parent="1" source="_3y1C-OyyPjyJ7rn_RSj-15" target="_3y1C-OyyPjyJ7rn_RSj-33">
          <mxGeometry relative="1" as="geometry" />
        </mxCell>
        <mxCell id="_3y1C-OyyPjyJ7rn_RSj-37" value="D4" style="html=1;dashed=0;whiteSpace=wrap;shape=mxgraph.dfd.dataStoreID;align=left;spacingLeft=3;points=[[0,0],[0.5,0],[1,0],[0,0.5],[1,0.5],[0,1],[0.5,1],[1,1]];" vertex="1" parent="1">
          <mxGeometry x="750" y="700" width="140" height="40" as="geometry" />
        </mxCell>
        <mxCell id="_3y1C-OyyPjyJ7rn_RSj-38" value="public.clubs" style="text;html=1;align=center;verticalAlign=middle;whiteSpace=wrap;rounded=0;" vertex="1" parent="1">
          <mxGeometry x="780" y="700" width="90" height="40" as="geometry" />
        </mxCell>
        <mxCell id="_3y1C-OyyPjyJ7rn_RSj-39" style="edgeStyle=orthogonalEdgeStyle;rounded=0;orthogonalLoop=1;jettySize=auto;html=1;entryX=-0.005;entryY=0.638;entryDx=0;entryDy=0;entryPerimeter=0;" edge="1" parent="1" source="_3y1C-OyyPjyJ7rn_RSj-26" target="_3y1C-OyyPjyJ7rn_RSj-37">
          <mxGeometry relative="1" as="geometry" />
        </mxCell>
        <mxCell id="_3y1C-OyyPjyJ7rn_RSj-40" value="D5" style="html=1;dashed=0;whiteSpace=wrap;shape=mxgraph.dfd.dataStoreID;align=left;spacingLeft=3;points=[[0,0],[0.5,0],[1,0],[0,0.5],[1,0.5],[0,1],[0.5,1],[1,1]];" vertex="1" parent="1">
          <mxGeometry x="750" y="780" width="140" height="40" as="geometry" />
        </mxCell>
        <mxCell id="_3y1C-OyyPjyJ7rn_RSj-41" value="public.organizers" style="text;html=1;align=center;verticalAlign=middle;whiteSpace=wrap;rounded=0;" vertex="1" parent="1">
          <mxGeometry x="780" y="780" width="110" height="40" as="geometry" />
        </mxCell>
        <mxCell id="_3y1C-OyyPjyJ7rn_RSj-42" style="edgeStyle=orthogonalEdgeStyle;rounded=0;orthogonalLoop=1;jettySize=auto;html=1;entryX=0.007;entryY=0.639;entryDx=0;entryDy=0;entryPerimeter=0;" edge="1" parent="1" source="_3y1C-OyyPjyJ7rn_RSj-28" target="_3y1C-OyyPjyJ7rn_RSj-40">
          <mxGeometry relative="1" as="geometry" />
        </mxCell>
        <mxCell id="_3y1C-OyyPjyJ7rn_RSj-44" value="Team&lt;div&gt;Information&lt;/div&gt;" style="text;html=1;align=center;verticalAlign=middle;whiteSpace=wrap;rounded=0;" vertex="1" parent="1">
          <mxGeometry x="665" y="607" width="80" height="30" as="geometry" />
        </mxCell>
        <mxCell id="_3y1C-OyyPjyJ7rn_RSj-46" value="Club Info and Licenses" style="text;html=1;align=center;verticalAlign=middle;whiteSpace=wrap;rounded=0;" vertex="1" parent="1">
          <mxGeometry x="665" y="690" width="80" height="30" as="geometry" />
        </mxCell>
        <mxCell id="_3y1C-OyyPjyJ7rn_RSj-47" value="Organizer Info and Licenses" style="text;html=1;align=center;verticalAlign=middle;whiteSpace=wrap;rounded=0;" vertex="1" parent="1">
          <mxGeometry x="665" y="770" width="80" height="30" as="geometry" />
        </mxCell>
        <mxCell id="_3y1C-OyyPjyJ7rn_RSj-79" style="edgeStyle=orthogonalEdgeStyle;rounded=0;orthogonalLoop=1;jettySize=auto;html=1;entryX=0.5;entryY=0;entryDx=0;entryDy=0;" edge="1" parent="1" source="_3y1C-OyyPjyJ7rn_RSj-48" target="_3y1C-OyyPjyJ7rn_RSj-71">
          <mxGeometry relative="1" as="geometry">
            <Array as="points">
              <mxPoint x="230" y="750" />
              <mxPoint x="300" y="750" />
            </Array>
          </mxGeometry>
        </mxCell>
        <mxCell id="_3y1C-OyyPjyJ7rn_RSj-48" value="8.0" style="swimlane;fontStyle=0;childLayout=stackLayout;horizontal=1;startSize=20;fillColor=#ffffff;horizontalStack=0;resizeParent=1;resizeParentMax=0;resizeLast=0;collapsible=0;marginBottom=0;swimlaneFillColor=#ffffff;rounded=1;" vertex="1" parent="1">
          <mxGeometry x="170" y="657" width="120" height="50" as="geometry" />
        </mxCell>
        <mxCell id="_3y1C-OyyPjyJ7rn_RSj-49" value="Access Groups" style="text;html=1;align=center;verticalAlign=middle;whiteSpace=wrap;rounded=0;" vertex="1" parent="_3y1C-OyyPjyJ7rn_RSj-48">
          <mxGeometry y="20" width="120" height="30" as="geometry" />
        </mxCell>
        <mxCell id="_3y1C-OyyPjyJ7rn_RSj-51" value="D3" style="html=1;dashed=0;whiteSpace=wrap;shape=mxgraph.dfd.dataStoreID;align=left;spacingLeft=3;points=[[0,0],[0.5,0],[1,0],[0,0.5],[1,0.5],[0,1],[0.5,1],[1,1]];" vertex="1" parent="1">
          <mxGeometry x="-90" y="418" width="150" height="40" as="geometry" />
        </mxCell>
        <mxCell id="_3y1C-OyyPjyJ7rn_RSj-59" style="edgeStyle=orthogonalEdgeStyle;rounded=0;orthogonalLoop=1;jettySize=auto;html=1;entryX=-0.004;entryY=0.438;entryDx=0;entryDy=0;entryPerimeter=0;" edge="1" parent="1" source="_3y1C-OyyPjyJ7rn_RSj-52" target="_3y1C-OyyPjyJ7rn_RSj-49">
          <mxGeometry relative="1" as="geometry">
            <mxPoint x="140.00000000000023" y="630" as="targetPoint" />
            <Array as="points">
              <mxPoint x="140" y="438" />
              <mxPoint x="140" y="690" />
            </Array>
          </mxGeometry>
        </mxCell>
        <mxCell id="_3y1C-OyyPjyJ7rn_RSj-52" value="public.teams" style="text;html=1;align=center;verticalAlign=middle;whiteSpace=wrap;rounded=0;" vertex="1" parent="1">
          <mxGeometry x="-80" y="418" width="140" height="40" as="geometry" />
        </mxCell>
        <mxCell id="_3y1C-OyyPjyJ7rn_RSj-53" value="D4" style="html=1;dashed=0;whiteSpace=wrap;shape=mxgraph.dfd.dataStoreID;align=left;spacingLeft=3;points=[[0,0],[0.5,0],[1,0],[0,0.5],[1,0.5],[0,1],[0.5,1],[1,1]];" vertex="1" parent="1">
          <mxGeometry x="-90" y="498" width="150" height="40" as="geometry" />
        </mxCell>
        <mxCell id="_3y1C-OyyPjyJ7rn_RSj-60" style="edgeStyle=orthogonalEdgeStyle;rounded=0;orthogonalLoop=1;jettySize=auto;html=1;entryX=-0.003;entryY=0.425;entryDx=0;entryDy=0;entryPerimeter=0;" edge="1" parent="1" source="_3y1C-OyyPjyJ7rn_RSj-54" target="_3y1C-OyyPjyJ7rn_RSj-49">
          <mxGeometry relative="1" as="geometry">
            <mxPoint x="140.00000000000023" y="630" as="targetPoint" />
            <Array as="points">
              <mxPoint x="140" y="518" />
              <mxPoint x="140" y="690" />
            </Array>
          </mxGeometry>
        </mxCell>
        <mxCell id="_3y1C-OyyPjyJ7rn_RSj-54" value="public.clubs" style="text;html=1;align=center;verticalAlign=middle;whiteSpace=wrap;rounded=0;" vertex="1" parent="1">
          <mxGeometry x="-80" y="498" width="140" height="40" as="geometry" />
        </mxCell>
        <mxCell id="_3y1C-OyyPjyJ7rn_RSj-55" value="D5" style="html=1;dashed=0;whiteSpace=wrap;shape=mxgraph.dfd.dataStoreID;align=left;spacingLeft=3;points=[[0,0],[0.5,0],[1,0],[0,0.5],[1,0.5],[0,1],[0.5,1],[1,1]];" vertex="1" parent="1">
          <mxGeometry x="-90" y="578" width="150" height="40" as="geometry" />
        </mxCell>
        <mxCell id="_3y1C-OyyPjyJ7rn_RSj-61" style="edgeStyle=orthogonalEdgeStyle;rounded=0;orthogonalLoop=1;jettySize=auto;html=1;" edge="1" parent="1" source="_3y1C-OyyPjyJ7rn_RSj-56">
          <mxGeometry relative="1" as="geometry">
            <mxPoint x="170" y="690" as="targetPoint" />
            <Array as="points">
              <mxPoint x="140" y="598" />
              <mxPoint x="140" y="690" />
            </Array>
          </mxGeometry>
        </mxCell>
        <mxCell id="_3y1C-OyyPjyJ7rn_RSj-56" value="public.organizers" style="text;html=1;align=center;verticalAlign=middle;whiteSpace=wrap;rounded=0;" vertex="1" parent="1">
          <mxGeometry x="-80" y="578" width="140" height="40" as="geometry" />
        </mxCell>
        <mxCell id="_3y1C-OyyPjyJ7rn_RSj-62" value="Team&lt;div&gt;Information&lt;/div&gt;" style="text;html=1;align=center;verticalAlign=middle;whiteSpace=wrap;rounded=0;" vertex="1" parent="1">
          <mxGeometry x="60" y="443" width="80" height="30" as="geometry" />
        </mxCell>
        <mxCell id="_3y1C-OyyPjyJ7rn_RSj-63" value="Club&lt;br&gt;&lt;div&gt;Information&lt;/div&gt;" style="text;html=1;align=center;verticalAlign=middle;whiteSpace=wrap;rounded=0;" vertex="1" parent="1">
          <mxGeometry x="60" y="523" width="80" height="30" as="geometry" />
        </mxCell>
        <mxCell id="_3y1C-OyyPjyJ7rn_RSj-65" value="&lt;div&gt;Organizer&lt;/div&gt;&lt;div&gt;Information&lt;/div&gt;" style="text;html=1;align=center;verticalAlign=middle;whiteSpace=wrap;rounded=0;" vertex="1" parent="1">
          <mxGeometry x="60" y="602" width="80" height="30" as="geometry" />
        </mxCell>
        <mxCell id="_3y1C-OyyPjyJ7rn_RSj-67" value="9.0" style="swimlane;fontStyle=0;childLayout=stackLayout;horizontal=1;startSize=20;fillColor=#ffffff;horizontalStack=0;resizeParent=1;resizeParentMax=0;resizeLast=0;collapsible=0;marginBottom=0;swimlaneFillColor=#ffffff;rounded=1;" vertex="1" parent="1">
          <mxGeometry x="-50" y="800" width="120" height="50" as="geometry" />
        </mxCell>
        <mxCell id="_3y1C-OyyPjyJ7rn_RSj-68" value="Create Practice" style="text;html=1;align=center;verticalAlign=middle;whiteSpace=wrap;rounded=0;" vertex="1" parent="_3y1C-OyyPjyJ7rn_RSj-67">
          <mxGeometry y="20" width="120" height="30" as="geometry" />
        </mxCell>
        <mxCell id="_3y1C-OyyPjyJ7rn_RSj-69" value="10.0" style="swimlane;fontStyle=0;childLayout=stackLayout;horizontal=1;startSize=20;fillColor=#ffffff;horizontalStack=0;resizeParent=1;resizeParentMax=0;resizeLast=0;collapsible=0;marginBottom=0;swimlaneFillColor=#ffffff;rounded=1;" vertex="1" parent="1">
          <mxGeometry x="100" y="800" width="120" height="50" as="geometry" />
        </mxCell>
        <mxCell id="_3y1C-OyyPjyJ7rn_RSj-70" value="Create Tryouts" style="text;html=1;align=center;verticalAlign=middle;whiteSpace=wrap;rounded=0;" vertex="1" parent="_3y1C-OyyPjyJ7rn_RSj-69">
          <mxGeometry y="20" width="120" height="30" as="geometry" />
        </mxCell>
        <mxCell id="_3y1C-OyyPjyJ7rn_RSj-71" value="11.0" style="swimlane;fontStyle=0;childLayout=stackLayout;horizontal=1;startSize=20;fillColor=#ffffff;horizontalStack=0;resizeParent=1;resizeParentMax=0;resizeLast=0;collapsible=0;marginBottom=0;swimlaneFillColor=#ffffff;rounded=1;" vertex="1" parent="1">
          <mxGeometry x="240" y="800" width="120" height="50" as="geometry" />
        </mxCell>
        <mxCell id="_3y1C-OyyPjyJ7rn_RSj-72" value="Create Tournament" style="text;html=1;align=center;verticalAlign=middle;whiteSpace=wrap;rounded=0;" vertex="1" parent="_3y1C-OyyPjyJ7rn_RSj-71">
          <mxGeometry y="20" width="120" height="30" as="geometry" />
        </mxCell>
        <mxCell id="_3y1C-OyyPjyJ7rn_RSj-73" style="edgeStyle=orthogonalEdgeStyle;rounded=0;orthogonalLoop=1;jettySize=auto;html=1;entryX=0.5;entryY=0;entryDx=0;entryDy=0;" edge="1" parent="1" source="_3y1C-OyyPjyJ7rn_RSj-49" target="_3y1C-OyyPjyJ7rn_RSj-69">
          <mxGeometry relative="1" as="geometry">
            <Array as="points">
              <mxPoint x="230" y="750" />
              <mxPoint x="160" y="750" />
            </Array>
          </mxGeometry>
        </mxCell>
        <mxCell id="_3y1C-OyyPjyJ7rn_RSj-75" style="edgeStyle=orthogonalEdgeStyle;rounded=0;orthogonalLoop=1;jettySize=auto;html=1;entryX=0;entryY=0.5;entryDx=0;entryDy=0;" edge="1" parent="1" source="_3y1C-OyyPjyJ7rn_RSj-49" target="_3y1C-OyyPjyJ7rn_RSj-55">
          <mxGeometry relative="1" as="geometry">
            <Array as="points">
              <mxPoint x="-110" y="700" />
              <mxPoint x="-110" y="598" />
            </Array>
          </mxGeometry>
        </mxCell>
        <mxCell id="_3y1C-OyyPjyJ7rn_RSj-76" style="edgeStyle=orthogonalEdgeStyle;rounded=0;orthogonalLoop=1;jettySize=auto;html=1;entryX=0;entryY=0.5;entryDx=0;entryDy=0;" edge="1" parent="1" source="_3y1C-OyyPjyJ7rn_RSj-49" target="_3y1C-OyyPjyJ7rn_RSj-53">
          <mxGeometry relative="1" as="geometry">
            <mxPoint x="-120" y="540" as="targetPoint" />
            <Array as="points">
              <mxPoint x="-110" y="700" />
              <mxPoint x="-110" y="518" />
            </Array>
          </mxGeometry>
        </mxCell>
        <mxCell id="_3y1C-OyyPjyJ7rn_RSj-77" style="edgeStyle=orthogonalEdgeStyle;rounded=0;orthogonalLoop=1;jettySize=auto;html=1;entryX=0;entryY=0.5;entryDx=0;entryDy=0;" edge="1" parent="1" source="_3y1C-OyyPjyJ7rn_RSj-49" target="_3y1C-OyyPjyJ7rn_RSj-51">
          <mxGeometry relative="1" as="geometry">
            <mxPoint x="-150" y="510" as="targetPoint" />
            <Array as="points">
              <mxPoint x="-110" y="700" />
              <mxPoint x="-110" y="438" />
            </Array>
          </mxGeometry>
        </mxCell>
        <mxCell id="_3y1C-OyyPjyJ7rn_RSj-78" value="&lt;div&gt;User ID&lt;/div&gt;" style="text;html=1;align=center;verticalAlign=middle;whiteSpace=wrap;rounded=0;" vertex="1" parent="1">
          <mxGeometry x="-30" y="670" width="80" height="30" as="geometry" />
        </mxCell>
        <mxCell id="_3y1C-OyyPjyJ7rn_RSj-80" style="edgeStyle=orthogonalEdgeStyle;rounded=0;orthogonalLoop=1;jettySize=auto;html=1;entryX=0.5;entryY=0;entryDx=0;entryDy=0;" edge="1" parent="1" source="_3y1C-OyyPjyJ7rn_RSj-49" target="_3y1C-OyyPjyJ7rn_RSj-67">
          <mxGeometry relative="1" as="geometry">
            <Array as="points">
              <mxPoint x="230" y="750" />
              <mxPoint x="10" y="750" />
            </Array>
          </mxGeometry>
        </mxCell>
        <mxCell id="_3y1C-OyyPjyJ7rn_RSj-81" value="&lt;div&gt;Group&lt;/div&gt;&lt;div&gt;Info&lt;/div&gt;" style="text;html=1;align=center;verticalAlign=middle;whiteSpace=wrap;rounded=0;" vertex="1" parent="1">
          <mxGeometry x="220" y="714" width="80" height="30" as="geometry" />
        </mxCell>
        <mxCell id="_3y1C-OyyPjyJ7rn_RSj-82" value="D6" style="html=1;dashed=0;whiteSpace=wrap;shape=mxgraph.dfd.dataStoreID;align=left;spacingLeft=3;points=[[0,0],[0.5,0],[1,0],[0,0.5],[1,0.5],[0,1],[0.5,1],[1,1]];" vertex="1" parent="1">
          <mxGeometry x="-50" y="900" width="150" height="40" as="geometry" />
        </mxCell>
        <mxCell id="_3y1C-OyyPjyJ7rn_RSj-83" value="public.practice" style="text;html=1;align=center;verticalAlign=middle;whiteSpace=wrap;rounded=0;" vertex="1" parent="1">
          <mxGeometry x="-35" y="900" width="135" height="40" as="geometry" />
        </mxCell>
        <mxCell id="_3y1C-OyyPjyJ7rn_RSj-86" value="D7" style="html=1;dashed=0;whiteSpace=wrap;shape=mxgraph.dfd.dataStoreID;align=left;spacingLeft=3;points=[[0,0],[0.5,0],[1,0],[0,0.5],[1,0.5],[0,1],[0.5,1],[1,1]];" vertex="1" parent="1">
          <mxGeometry x="-50" y="960" width="150" height="40" as="geometry" />
        </mxCell>
        <mxCell id="_3y1C-OyyPjyJ7rn_RSj-87" value="public.tryouts" style="text;html=1;align=center;verticalAlign=middle;whiteSpace=wrap;rounded=0;" vertex="1" parent="1">
          <mxGeometry x="-40" y="960" width="140" height="40" as="geometry" />
        </mxCell>
        <mxCell id="_3y1C-OyyPjyJ7rn_RSj-88" value="D8" style="html=1;dashed=0;whiteSpace=wrap;shape=mxgraph.dfd.dataStoreID;align=left;spacingLeft=3;points=[[0,0],[0.5,0],[1,0],[0,0.5],[1,0.5],[0,1],[0.5,1],[1,1]];" vertex="1" parent="1">
          <mxGeometry x="-50" y="1020" width="180" height="40" as="geometry" />
        </mxCell>
        <mxCell id="_3y1C-OyyPjyJ7rn_RSj-89" value="public.tournaments" style="text;html=1;align=center;verticalAlign=middle;whiteSpace=wrap;rounded=0;" vertex="1" parent="1">
          <mxGeometry x="-40" y="1020" width="165" height="40" as="geometry" />
        </mxCell>
        <mxCell id="_3y1C-OyyPjyJ7rn_RSj-99" style="edgeStyle=orthogonalEdgeStyle;rounded=0;orthogonalLoop=1;jettySize=auto;html=1;entryX=0.333;entryY=0.04;entryDx=0;entryDy=0;entryPerimeter=0;" edge="1" parent="1" source="_3y1C-OyyPjyJ7rn_RSj-68" target="_3y1C-OyyPjyJ7rn_RSj-83">
          <mxGeometry relative="1" as="geometry" />
        </mxCell>
        <mxCell id="_3y1C-OyyPjyJ7rn_RSj-100" style="edgeStyle=orthogonalEdgeStyle;rounded=0;orthogonalLoop=1;jettySize=auto;html=1;entryX=1;entryY=0.5;entryDx=0;entryDy=0;" edge="1" parent="1" source="_3y1C-OyyPjyJ7rn_RSj-70" target="_3y1C-OyyPjyJ7rn_RSj-87">
          <mxGeometry relative="1" as="geometry" />
        </mxCell>
        <mxCell id="_3y1C-OyyPjyJ7rn_RSj-102" style="edgeStyle=orthogonalEdgeStyle;rounded=0;orthogonalLoop=1;jettySize=auto;html=1;entryX=1;entryY=0.5;entryDx=0;entryDy=0;" edge="1" parent="1" source="_3y1C-OyyPjyJ7rn_RSj-72" target="_3y1C-OyyPjyJ7rn_RSj-89">
          <mxGeometry relative="1" as="geometry">
            <Array as="points">
              <mxPoint x="300" y="1040" />
            </Array>
          </mxGeometry>
        </mxCell>
        <mxCell id="_3y1C-OyyPjyJ7rn_RSj-103" value="&lt;div&gt;Practice Info&lt;/div&gt;" style="text;html=1;align=center;verticalAlign=middle;whiteSpace=wrap;rounded=0;" vertex="1" parent="1">
          <mxGeometry x="20" y="860" width="80" height="30" as="geometry" />
        </mxCell>
        <mxCell id="_3y1C-OyyPjyJ7rn_RSj-104" value="&lt;div&gt;Tryout Info&lt;/div&gt;" style="text;html=1;align=center;verticalAlign=middle;whiteSpace=wrap;rounded=0;" vertex="1" parent="1">
          <mxGeometry x="156" y="900" width="80" height="30" as="geometry" />
        </mxCell>
        <mxCell id="_3y1C-OyyPjyJ7rn_RSj-105" value="&lt;div&gt;Tournament Info&lt;/div&gt;" style="text;html=1;align=center;verticalAlign=middle;whiteSpace=wrap;rounded=0;" vertex="1" parent="1">
          <mxGeometry x="170" y="1040" width="100" height="30" as="geometry" />
        </mxCell>
      </root>
    </mxGraphModel>
  </diagram>
</mxfile>
